<svg xmlns="http://www.w3.org/2000/svg" viewBox="0 0 500 500"><g id="freepik--background-simple--inject-97"><path d="M478.52,245.36c6.13-53.86-12.08-107.93-50.3-146.36-18.8-18.89-44.5-36.7-78.65-45.3-95.78-24.12-157.85-2-188.88,56.67S40.61,158.94,26.44,260.12,81.09,472.61,197.79,478.68s101.68-52,165.51-76.94C412.13,382.68,469.38,325.72,478.52,245.36Z" style="fill:#CEE5D6"></path><path d="M478.52,245.36c6.13-53.86-12.08-107.93-50.3-146.36-18.8-18.89-44.5-36.7-78.65-45.3-95.78-24.12-157.85-2-188.88,56.67S40.61,158.94,26.44,260.12,81.09,472.61,197.79,478.68s101.68-52,165.51-76.94C412.13,382.68,469.38,325.72,478.52,245.36Z" style="fill:#fff;opacity:0.7000000000000001"></path></g><g id="freepik--Trees--inject-97"><path d="M43.13,306.63s46,4.55,69.32,33.06c0,0,24.63-33,68.88-32.36a89.41,89.41,0,1,0-138.21-.63Z" style="fill:#CEE5D6"></path><path d="M43.13,306.63s46,4.55,69.32,33.06c0,0,24.63-33,68.88-32.36a89.41,89.41,0,1,0-138.21-.63Z" style="fill:#fff;opacity:0.4"></path><path d="M69,274.32c23,7.28,37.25,28.63,41,34.8l-.33,152h6.61l-1-133.32c5-7.59,19.35-26.52,41.49-33.28,0,0-26.29,6.24-41.65,27.19l-.86-31.92c3.78-6.06,18.59-27.56,42.51-34.87,0,0-27.5,6.52-42.68,28.63l-.86-32.17.06.43s15.53-28,43.48-36.49c0,0-28.78,6.83-43.7,30.19l-2.11-43.29-.66,62.06C95.65,242,69,235.5,69,235.5c23.54,7.45,37.94,29.69,41.23,35.23l-.21,32C95.34,280.8,69,274.32,69,274.32Z" style="fill:#263238"></path><path d="M69,274.32c23,7.28,37.25,28.63,41,34.8l-.33,152h6.61l-1-133.32c5-7.59,19.35-26.52,41.49-33.28,0,0-26.29,6.24-41.65,27.19l-.86-31.92c3.78-6.06,18.59-27.56,42.51-34.87,0,0-27.5,6.52-42.68,28.63l-.86-32.17.06.43s15.53-28,43.48-36.49c0,0-28.78,6.83-43.7,30.19l-2.11-43.29-.66,62.06C95.65,242,69,235.5,69,235.5c23.54,7.45,37.94,29.69,41.23,35.23l-.21,32C95.34,280.8,69,274.32,69,274.32Z" style="fill:#999"></path><path d="M352.94,355.46s31.46,3.11,47.41,22.61c0,0,16.84-22.59,47.1-22.13a61.15,61.15,0,1,0-94.52-.43Z" style="fill:#CEE5D6"></path><path d="M352.94,355.46s31.46,3.11,47.41,22.61c0,0,16.84-22.59,47.1-22.13a61.15,61.15,0,1,0-94.52-.43Z" style="fill:#fff;opacity:0.4"></path><path d="M370.63,333.37c15.72,5,25.48,19.58,28,23.79l-.23,104H403l-.69-91.18c3.43-5.19,13.24-18.13,28.38-22.76,0,0-18,4.27-28.49,18.6l-.59-21.83c2.59-4.15,12.72-18.85,29.08-23.85,0,0-18.81,4.46-29.19,19.58l-.59-22,0,.3s10.62-19.12,29.74-25c0,0-19.69,4.67-29.89,20.65l-1.44-29.61-.45,42.44c-10-15.2-28.23-19.68-28.23-19.68,16.1,5.1,25.95,20.31,28.2,24.1l-.15,21.87C388.64,337.79,370.63,333.37,370.63,333.37Z" style="fill:#263238"></path><path d="M370.63,333.37c15.72,5,25.48,19.58,28,23.79l-.23,104H403l-.69-91.18c3.43-5.19,13.24-18.13,28.38-22.76,0,0-18,4.27-28.49,18.6l-.59-21.83c2.59-4.15,12.72-18.85,29.08-23.85,0,0-18.81,4.46-29.19,19.58l-.59-22,0,.3s10.62-19.12,29.74-25c0,0-19.69,4.67-29.89,20.65l-1.44-29.61-.45,42.44c-10-15.2-28.23-19.68-28.23-19.68,16.1,5.1,25.95,20.31,28.2,24.1l-.15,21.87C388.64,337.79,370.63,333.37,370.63,333.37Z" style="fill:#999"></path></g><g id="freepik--Clouds--inject-97"><path d="M382.85,35.53c-.23-.7-.47-1.41-.72-2.12-9.41-26.17-53.2-28-53.2,4.19,0,6.2-14.87,0-20.45,8.06s.62,13-6.82,15.49-8.05-3.72-17.34-3.1-8.06,9.29-11.16,11.77-3.09,1.24-9.91,1.86-8.05,5.57-8.05,5.57H418.14s6.2-18.58-4.95-25.4S402,54.33,393.36,50.61C386.19,47.54,384.85,41.71,382.85,35.53Z" style="fill:none;stroke:#b2b2b2;stroke-linecap:round;stroke-linejoin:round"></path><path d="M388.48,70.48s3.38-10.44-4.91-18.11-16.87-3.37-19.33,0-2.45,9.82-6.44,10.43-3.07-6.75-11.66-4.91-5.22,10.44-9.21,12.28-4-4.91-9.51-2.76-5.22,6.13-5.22,6.13" style="fill:none;stroke:#b2b2b2;stroke-linecap:round;stroke-linejoin:round"></path><path d="M344.41,49.63a15.54,15.54,0,0,0-15.72-1.37c-8.88,4.1-4.78,12.64-8.88,14.69s-6.15-.34-11.27,2-4.79,5.81-4.79,5.81" style="fill:none;stroke:#b2b2b2;stroke-linecap:round;stroke-linejoin:round"></path><path d="M143.11,74.66c-.1-.31-.2-.61-.31-.92-4.1-11.39-23.15-12.17-23.15,1.82,0,2.7-6.47,0-8.9,3.5s.27,5.67-3,6.74-3.51-1.61-7.55-1.34-3.5,4-4.85,5.12-1.35.54-4.31.81-3.51,2.42-3.51,2.42h70.89s2.7-8.08-2.15-11-4.85,1.08-8.63-.54C144.56,79.88,144,77.35,143.11,74.66Z" style="fill:none;stroke:#b2b2b2;stroke-linecap:round;stroke-linejoin:round"></path><path d="M145.56,89.86A7.9,7.9,0,0,0,143.42,82c-3.6-3.34-7.34-1.47-8.41,0s-1.06,4.27-2.8,4.53-1.33-2.93-5.07-2.13-2.27,4.54-4,5.34-1.73-2.14-4.14-1.2-2.27,2.67-2.27,2.67" style="fill:none;stroke:#b2b2b2;stroke-linecap:round;stroke-linejoin:round"></path><path d="M126.39,80.79a6.76,6.76,0,0,0-6.84-.59c-3.87,1.78-2.08,5.5-3.87,6.39s-2.67-.15-4.9.89S108.7,90,108.7,90" style="fill:none;stroke:#b2b2b2;stroke-linecap:round;stroke-linejoin:round"></path></g><g id="freepik--speech-bubble--inject-97"><path d="M161.55,173l-9-7.21a31.57,31.57,0,1,0-3.62,5.59Z" style="fill:#fff;stroke:#263238;stroke-linecap:round;stroke-linejoin:round"></path><path d="M124.19,146.09c-1.71-2.7-4.51-4.45-7.35-5.75-4.85-2.22-9.83,1.73-11.07,6.41-1.5,5.66,3.14,10,7.26,13.07a71.32,71.32,0,0,0,18.75,9.69s11.1-23.72,7.57-30.79a6.52,6.52,0,0,0-8.49-3.29C126.16,137.38,125.72,142,124.19,146.09Z" style="fill:#CEE5D6;stroke:#263238;stroke-linecap:round;stroke-linejoin:round"></path></g><g id="freepik--Character--inject-97"><path d="M335.21,292s5.74,51.38,6.52,57.12-1,11.48-4.43,20.35-17.48,36.52-17.48,36.52L311,294.55Z" style="fill:#fff;stroke:#263238;stroke-linecap:round;stroke-linejoin:round"></path><polygon points="315.86 316.34 336.55 305.47 335.21 291.94 315.87 301.64 315.86 316.34" style="fill:#263238;stroke:#263238;stroke-linecap:round;stroke-linejoin:round"></polygon><path d="M195.92,455.76l-.88,4.72H323.43c-.31-7-2.18-48.34-3.61-54.54-1.56-6.79-44.08.52-75.38-2.09s-40.17-6.78-40.17-6.78-10.44,36.25-12,41.73,1.56,9.91,1.82,11.22S195.92,455.76,195.92,455.76Z" style="fill:#263238;stroke:#263238;stroke-linecap:round;stroke-linejoin:round"></path><path d="M172.18,299s-6.52,55-6.26,61.56,2.22,11,5.48,18.78a144.62,144.62,0,0,0,12.52,23.21c2.61,4.18,11.74,17.74,11.74,19.31s-1.83,9.13-1.57,11.47,5.48,7.83,5.48,7.83,5.22-24.78,5.48-27.39.78-3.91.26-8.35-11.22-44.6-11.22-46.69,7.5-42.71,7.5-42.71Z" style="fill:#fff;stroke:#263238;stroke-linecap:round;stroke-linejoin:round"></path><polygon points="170.28 316.68 198.63 329.59 200.19 322.47 170.78 305.03 170.28 316.68" style="fill:#263238;stroke:#263238;stroke-linecap:round;stroke-linejoin:round"></polygon><path d="M186.18,143.65s1,13.1,2.11,18.38,5.7,7.18,5.49,9.5-4.44,16.05-2.54,17.53,7.19,2.54,7.19,2.54,8.66,19.22,13.3,19.85,14.37-6.12,14.37-6.12a60.16,60.16,0,0,1-7.82,12.46c-4.43,5.07-47.31,26-47.73,27.88S153.86,289,153.86,289l46,30.63s5.49,4.22,5.49,20.91-5.71,43.3-4,45.62a23.18,23.18,0,0,1,2.75,6.13s-3,1.27-2.11,4,5.28,6.13,5.91,6.76,19,12,38.44,13.73,55.56-1.9,62.1-4.22,14.79-2.54,14.79-7.19-.85-7-1.27-14.57-3.59-54.28-3.59-54.28l-2.53-34.86,31.05-14.57L319,232.57s-21.12-7-33.58-14.36-24.29-25.13-26.19-30.63S256.09,177,256.09,177s-4.22-13.51-3.8-22.39,1.27-6.76-1.06-3.16,4-7.19-.63-16.9-30.42-16.27-44.15-11.41S184.91,135,186.18,143.65Z" style="fill:#fff;stroke:#263238;stroke-linecap:round;stroke-linejoin:round"></path><path d="M203.07,110.49l-5.91,2.74s-13.52-9.08-19.43-.63,4,12.89,3.38,16.48-11-1.9-13.73,7.81S175.61,151.68,179,151s13.1-4.85,15.21-10.14,9.93-8.66,11-4.85-6.76,12.25-1.06,14.78,17.74,1.48,18.38,3.59,1.47,4,4,3.17,8-12.25,14.78-5.07,4.23,12.25,1.91,16.69a51.62,51.62,0,0,1-6.34,8.87s5.91,1.48,9.93,2.32,9.92.64,10.56-.84-1.48-17.53.21-22.18,9.71-18.38,5.91-30.63-23-21.12-35.27-22.81S203.07,110.49,203.07,110.49Z" style="fill:#263238;stroke:#263238;stroke-linecap:round;stroke-linejoin:round"></path><path d="M193.36,165.41s-1.06-6.76,7-4.44" style="fill:none;stroke:#263238;stroke-linecap:round;stroke-linejoin:round"></path><path d="M204.76,192a12.25,12.25,0,0,0,8-11.83" style="fill:none;stroke:#263238;stroke-linecap:round;stroke-linejoin:round"></path><line x1="210.47" y1="179.77" x2="214.48" y2="179.98" style="fill:none;stroke:#263238;stroke-linecap:round;stroke-linejoin:round"></line><path d="M203.36,169.22c.64,1.37.56,2.77-.18,3.11s-1.86-.49-2.5-1.86-.56-2.77.18-3.12S202.72,167.84,203.36,169.22Z" style="fill:#263238"></path><path d="M227.83,191a40.35,40.35,0,0,0-.25-4.67" style="fill:none;stroke:#263238;stroke-linecap:round;stroke-linejoin:round"></path><path d="M226.1,205.33a67.76,67.76,0,0,0,1.54-9.93" style="fill:none;stroke:#263238;stroke-linecap:round;stroke-linejoin:round"></path><path d="M319,232.57s-21.12-7-33.58-14.36c-6.39-3.79-12.61-10.3-17.41-16.49-19.31-6.3-36.89,2.64-43.55,6.78a53.42,53.42,0,0,1-6.21,9.29c-4.43,5.07-47.31,26-47.73,27.88S153.86,289,153.86,289l46,30.63s5.49,4.22,5.49,20.91-5.71,43.3-4,45.62a23.18,23.18,0,0,1,2.75,6.13s-3,1.27-2.11,4,5.28,6.13,5.91,6.76,19,12,38.44,13.73,55.56-1.9,62.1-4.22,14.79-2.54,14.79-7.19-.85-7-1.27-14.57-3.59-54.28-3.59-54.28l-2.53-34.86,31.05-14.57Z" style="fill:#fff;stroke:#263238;stroke-linecap:round;stroke-linejoin:round"></path><path d="M194.92,275.1c-.48-1.55-1-3.06-1.56-4.51" style="fill:none;stroke:#263238;stroke-linecap:round;stroke-linejoin:round"></path><path d="M201.38,321.29s-.3-22.33-5-41.09" style="fill:none;stroke:#263238;stroke-linecap:round;stroke-linejoin:round"></path><path d="M203.07,312s4.44-6.12,2.75-22.6" style="fill:none;stroke:#263238;stroke-linecap:round;stroke-linejoin:round"></path><path d="M189.56,282s8.66,13.94,11.19,26.4" style="fill:none;stroke:#263238;stroke-linecap:round;stroke-linejoin:round"></path><polygon points="155.34 281.79 150.48 293.19 202.86 323.82 201.59 316.01 155.34 281.79" style="fill:#CEE5D6;stroke:#263238;stroke-linecap:round;stroke-linejoin:round"></polygon><polygon points="316.5 304.18 349.66 291.08 344.59 282.63 316.58 297.76 316.5 304.18" style="fill:#CEE5D6;stroke:#263238;stroke-linecap:round;stroke-linejoin:round"></polygon><polyline points="313.07 267.48 316.5 304.18 317.89 275.38" style="fill:none;stroke:#263238;stroke-linecap:round;stroke-linejoin:round"></polyline><path d="M271.22,205.6c-1.12-1.28-2.18-2.59-3.18-3.88-19.31-6.3-36.89,2.64-43.55,6.78-.65,1.19-1.47,2.63-2.42,4.12C231.11,209.21,252.44,202.38,271.22,205.6Z" style="fill:#CEE5D6;stroke:#263238;stroke-linecap:round;stroke-linejoin:round"></path><path d="M254.11,411.69a113,113,0,0,0,12.81,1.08" style="fill:none;stroke:#263238;stroke-linecap:round;stroke-linejoin:round"></path><path d="M206.32,394s16.78,11.9,42.35,16.76" style="fill:none;stroke:#263238;stroke-linecap:round;stroke-linejoin:round"></path><path d="M280.55,414.72s23.61-7.3,32.86-17" style="fill:none;stroke:#263238;stroke-linecap:round;stroke-linejoin:round"></path><path d="M242.31,304.73c-1,1.36-2,2.7-3,4" style="fill:none;stroke:#263238;stroke-linecap:round;stroke-linejoin:round"></path><path d="M275.32,240.26S263,274.38,244.9,301" style="fill:none;stroke:#263238;stroke-linecap:round;stroke-linejoin:round"></path><path d="M232.17,311c-1.07,1.62-2.06,3.09-2.94,4.32" style="fill:none;stroke:#263238;stroke-linecap:round;stroke-linejoin:round"></path><path d="M249,283.28s-7.48,13-14,23.3" style="fill:none;stroke:#263238;stroke-linecap:round;stroke-linejoin:round"></path><path d="M292.17,221.92l-2.35,47.21-.52,7.57s7.31-6.26,10.7-5,11.21,6.78,11.21,6.78l-9.91-51.91Z" style="fill:#263238;stroke:#263238;stroke-linecap:round;stroke-linejoin:round"></path><polygon points="205.57 345.56 192.27 375.3 205.05 367.21 205.57 345.56" style="fill:#263238;stroke:#263238;stroke-linecap:round;stroke-linejoin:round"></polygon><path d="M192.27,375.3s26.34-25.05,42-40.44,50.87-51.9,55.82-60.51,9.86-4.44,15.13-3.39c8.73,1.72,18.82,51.68,17.48,59.47-1.23,7.2-42.52,56.86-47.47,59.21s-12,1.57-13.83,3.13-5.48,4.7-10.17,5-44.61-12-44.61-12-3.41,2.65-5.23.28S192.79,377.38,192.27,375.3Z" style="fill:#CEE5D6;stroke:#263238;stroke-linecap:round;stroke-linejoin:round"></path><path d="M305.21,271a25.81,25.81,0,0,1-2.87,8.6C300,283.74,270.26,321,257,334.6s-33.13,31-41,35.22A51.84,51.84,0,0,1,198,375" style="fill:none;stroke:#263238;stroke-linecap:round;stroke-linejoin:round"></path><line x1="237.13" y1="361.47" x2="259.3" y2="378.43" style="fill:none;stroke:#263238;stroke-linecap:round;stroke-linejoin:round"></line><path d="M295,295.74s15.65,18.52,21.65,35.21" style="fill:none;stroke:#263238;stroke-linecap:round;stroke-linejoin:round"></path><path d="M299.21,301.48s-18.26,27.38-37,42.77-22.69,19.83-22.69,19.83l-2.09,21.13,6-.52,1.83-17s19.82-13.56,36-31.56,21.91-29.48,21.91-29.48Z" style="fill:#263238;stroke:#263238;stroke-linecap:round;stroke-linejoin:round"></path></g></svg>